<?xml version="1.0" encoding="UTF-8" standalone="no"?>
<!-- Created with Inkscape (http://www.inkscape.org/) -->

<svg
   width="62.387871mm"
   height="62.388mm"
   viewBox="0 0 62.387871 62.388"
   version="1.1"
   id="svg5"
   xml:space="preserve"
   xmlns="http://www.w3.org/2000/svg"
   xmlns:svg="http://www.w3.org/2000/svg">
   <defs id="defs2"/>
   <g
     id="layer1"
     transform="translate(-0.444997,-0.793027)">
     <g
       id="g6793"
       style="fill:rgba(255,255,245,0.86);stroke:none;stroke-width:0.264583;opacity:1;"
       transform="translate(-33.127298,-94.979955)"><path
         d="m 58.78521,143.0792 c -0.803867,2.43888 -1.701069,4.97497 -1.580038,7.54006 0.04225,0.89537 0.230806,1.87332 0.796897,2.56831 0.840403,1.03177 2.189077,1.67247 3.494644,1.92999 3.071762,0.6059 6.437639,0.11847 9.330711,-1.0786 0.580167,-0.24006 1.083149,-0.68001 1.476932,-1.16904 0.664879,-0.8257 1.410453,-1.64231 1.396501,-2.85735 -0.01183,-1.02984 -1.433777,-1.27635 -2.248959,-0.66146 -0.648493,0.48895 -0.744951,1.42709 -1.367102,1.89627 -0.744935,0.56177 -1.716612,0.77449 -2.633052,0.94957 -1.791094,0.34218 -3.67422,0.501 -5.467761,0.17189 -0.693677,-0.12729 -1.548591,-0.23543 -1.953354,-0.81297 -0.724688,-1.03403 -0.377761,-2.53777 -0.174809,-3.78405 0.575888,-3.53639 0.560266,-3.55444 0.991757,-5.37994 0.288034,-1.21858 0.995211,-3.52872 -0.0232,-3.75641 -0.810752,-0.18126 -1.52899,2.89589 -2.039167,4.44373 z"
         id="path6863" /><path
         d="m 33.572295,105.82715 c 0.437991,0.53753 0.716438,0.34978 1.322916,0.66146 0.775229,0.39838 1.495611,1.3113 2.028481,1.98437 2.499334,3.15709 3.628232,7.27911 8.025686,8.37848 2.288937,0.57222 5.079974,-0.006 6.879167,-1.4552 0.614257,-0.49483 2.066899,-1.43561 1.234731,-2.38125 -1.022561,-1.16203 -2.985532,0.43442 -3.880564,0.88193 -2.194878,1.09744 -4.476459,0.60333 -6.35,-0.83785 -2.663746,-2.04904 -3.584628,-5.58964 -6.879167,-7.09965 -0.672174,-0.30808 -1.655948,-0.13229 -2.38125,-0.13229"
         id="path6860" /><path
         d="m 68.972664,114.27226 h 0.264583 c 0.518848,-0.56592 1.869827,-0.56537 2.645833,-0.22048 2.443444,1.08595 4.581789,2.61196 7.408334,2.33715 5.792258,-0.56315 10.315605,-4.76757 14.816668,-7.8934 0.585816,-0.40683 1.25042,-0.41029 1.852083,-0.83785 -1.071827,-1.65645 -4.42387,-0.55915 -5.820834,0.35277 -3.115769,2.03392 -5.988579,3.79912 -9.525,5.02708 -0.881856,0.30618 -1.575594,0.79375 -2.557727,0.79375 -1.793082,0 -3.375555,-0.96049 -5.11519,-1.32292 -1.490927,-0.31059 -3.919273,-0.0655 -3.96875,1.7639"
         id="path6857" /><path
         d="m 58.972296,98.947984 c -0.441169,0.0051 -0.293742,1.952586 -0.476228,2.922626 -0.595871,3.16748 -1.326833,6.30813 -2.019135,9.45594 -0.845099,3.84255 -2.313116,8.66039 -2.605723,11.51195 -0.466164,4.54293 -0.381784,5.92547 -0.188913,7.42936 0.357234,2.78548 3.199585,7.50616 9.04529,7.50616 0.975518,0 1.92558,-0.15268 2.859294,-0.37335 3.695701,-0.87259 7.894374,-4.14152 6.791061,-8.55477 -0.431006,-1.7235 -2.348841,-2.63083 -2.998788,-4.23333 -0.503193,-1.24066 -0.567531,-2.7744 -0.617272,-3.96875 -0.02355,-0.56621 0.186002,-1.58314 -0.35269,-1.98438 -0.332052,-0.24717 -0.862277,-0.13176 -1.102519,0.1764 -0.63209,0.81052 -1.335379,2.53455 -1.455208,3.92464 -0.138658,1.60852 0.29676,3.25777 0.881856,4.7625 0.452294,1.1632 2.37002,1.98804 1.984375,3.175 -0.994411,3.06065 -5.810559,4.31605 -8.951648,3.61606 -1.370509,-0.30542 -2.343695,-1.78361 -2.866232,-3.08689 -1.148851,-2.86539 -0.440925,-6.18876 -0.132291,-9.26042 0.234628,-2.33511 0.96671,-4.59348 1.499129,-6.87916 0.262339,-1.12623 0.599702,-2.23495 0.835208,-3.36709 0.309457,-1.48764 0.606646,-2.98307 0.757927,-4.49501 0.177023,-1.76921 0.450019,-3.57502 0.172837,-5.33132 -0.162707,-1.03096 -0.510027,-2.942662 -1.060328,-2.946166"
         id="path6854" /></g></g></svg>
