<?xml version="1.0" encoding="UTF-8" standalone="no"?>
<svg
   version="1.1"
   viewBox="0 0 200 198.36257"
   width="200"
   height="198.36256"
   id="svg225"
   sodipodi:docname="反反.svg"
   inkscape:version="1.2.1 (9c6d41e410, 2022-07-14)"
   xmlns:inkscape="http://www.inkscape.org/namespaces/inkscape"
   xmlns:sodipodi="http://sodipodi.sourceforge.net/DTD/sodipodi-0.dtd"
   xmlns="http://www.w3.org/2000/svg"
   xmlns:svg="http://www.w3.org/2000/svg">
  <defs
     id="defs229" />
  <sodipodi:namedview
     id="namedview227"
     pagecolor="#ffffff"
     bordercolor="#000000"
     borderopacity="0.25"
     inkscape:showpageshadow="2"
     inkscape:pageopacity="0.0"
     inkscape:pagecheckerboard="0"
     inkscape:deskcolor="#d1d1d1"
     showgrid="false"
     showguides="false"
     inkscape:zoom="5.6900002"
     inkscape:cx="99.999996"
     inkscape:cy="99.209135"
     inkscape:window-width="2560"
     inkscape:window-height="1361"
     inkscape:window-x="-9"
     inkscape:window-y="41"
     inkscape:window-maximized="1"
     inkscape:current-layer="svg225" />
  <g
     fill="rgba(127,127,127,1)"
     width="32"
     height="32"
     id="g223"
     transform="matrix(-1.1695906,0,0,1.1695906,214.38596,-21.286549)">
    <path
       d="m 50,35 v 0.136842 L 57.2,34 l 13,-1.8 12.7,-1.8 12.4,-1.7 11.9,-1.7 11.7,-1.7 11.3,-1.7 11,-1.8 10.6,-1.8 9.31351,-1.64356 L 161.1,18.3 161.1584,18.34852 162,18.2 162.15755,19.178446 173.5,28.6 173.8,31.5 169.37885,29.201001 163.9,30 l -10.5,1.3 -10.8,1.1 -11.2,1.1 -11.4,1 -11.8,1 L 96,36.3 83.5,37 70.7,37.5 57.5,37.8 H 50 V 75 h 97 l 6,-5 11,9 -5,3 -1.85579,0.773245 L 152.2,95.4 l -7.8,15.4 -9.1,14.2 -10.3,12.9 -6.81257,6.81257 5.11257,4.18743 11.4,7.3 12.3,6 13.2,4.8 14.2,3.5 8.9,2 -11.8,10.9 -15.2,-4.6 -14.2,-5.9 L 129,165.6 117.1,157 111.04794,151.39624 100.5,159.9 l -14,9 -15.2,7.7 -16.5,6.3 -17.6,4.9 -0.5,-1.7 16.7,-6.7 15.5,-7.6 14.1,-8.5 12.9,-9.4 9.1796,-8.30912 L 96.6,135.8 88.2,123.3 80.9,109.5 75,94.4 70.62716,79 H 50 v 4 l -0.7,14.2 -1.2,13.5 -2,12.6 -2.6,11.9 -3.2,11 -4,10.1 -4.6,9.3 -5.3,8.4 -6.1,7.3 -6.7,6.3 -1.3,-1.3 5,-7.3 4.5,-7.9 4,-8.4 3.5,-9.1 2.8,-9.9 2.4,-10.6 1.7,-11.3 1.2,-12.2 L 38,96.7 V 29 Z M 72.713072,79 78.8,92.9 l 7.4,13.9 8,12.5 8.9,11.2 8.39543,8.48198 L 117.9,131.9 l 9.1,-12.6 8,-13.6 6.7,-14.8 4.14241,-11.9 z"
       id="path221" />
  </g>
</svg>
