<svg width="517" height="506" viewBox="0 0 517 506" fill="none" xmlns="http://www.w3.org/2000/svg">
<path d="M33 148V53C33 29.6667 44.6667 18 68 18H163" stroke="#2563EB" stroke-width="35" stroke-linecap="round"/>
<path d="M353 18H448C471.333 18 483 29.6667 483 53V148" stroke="#2563EB" stroke-width="35" stroke-linecap="round"/>
<path d="M33 358V453C33 476.333 44.6667 488 68 488H163" stroke="#2563EB" stroke-width="35" stroke-linecap="round"/>
<path d="M353 488H448C471.333 488 483 476.333 483 453V358" stroke="#2563EB" stroke-width="35" stroke-linecap="round"/>
<path d="M141.646 354.16C149.802 354.16 157.752 353.181 165.494 351.222C173.213 349.269 179.817 346.82 185.29 343.865C190.709 340.938 195.513 337.909 199.699 334.774C203.856 331.661 207.011 329.009 209.135 326.822C210.194 325.731 211.003 324.747 211.525 323.878C212.025 323.047 212.376 322.134 212.19 321.265C212.041 320.567 211.627 319.845 211.075 319.122C210.512 318.384 209.744 317.567 208.79 316.674C207.837 315.782 206.986 315.084 206.243 314.603C205.535 314.144 204.786 313.788 204.069 313.787C203.678 313.787 203.315 313.932 203.025 314.082C202.719 314.242 202.394 314.463 202.057 314.726C201.381 315.253 200.567 316.019 199.622 317.001L199.618 317.005C191.225 325.819 181.828 332.124 171.427 335.942C160.952 339.787 151.451 341.594 142.911 341.404C134.419 341.214 128.207 338.576 124.093 333.625C119.941 328.629 117.805 321.718 117.802 312.773C118.007 307.996 118.723 302.435 119.957 296.083C120.578 292.885 121.046 290.434 121.357 288.733C121.513 287.883 121.63 287.215 121.709 286.734C121.725 286.639 121.737 286.55 121.75 286.468C121.776 286.464 121.803 286.459 121.832 286.454C122.304 286.388 123.019 286.329 123.994 286.281C125.936 286.185 128.815 286.137 132.641 286.137H132.651C150.275 285.943 164.231 284.585 174.484 282.04C186.078 279.303 194.891 275.024 200.814 269.13C206.764 263.21 209.728 255.73 209.728 246.765C209.728 238.101 206.146 231.475 199.009 227.021C191.994 222.644 183.73 220.474 174.256 220.474H173.324V220.475C167.006 220.281 160.391 221.169 153.485 223.128C146.572 225.089 139.259 228.123 131.55 232.219C123.807 236.333 116.795 241.426 110.517 247.499C104.198 253.611 99.0545 261.285 95.0762 270.496C91.0826 279.744 89.0938 289.958 89.0938 301.125V301.14C89.3042 315.512 93.9393 327.951 103.003 338.408C112.134 348.942 125.065 354.16 141.646 354.16ZM130.467 273.381C128.4 273.381 126.865 273.356 125.854 273.309C125.732 273.303 125.619 273.296 125.515 273.289C125.789 272.304 126.205 270.822 126.77 268.841C127.563 266.056 129.17 262.655 131.631 258.623C134.079 254.613 137.042 250.69 140.523 246.856C143.937 243.097 148.479 239.875 154.183 237.205C159.838 234.559 166.007 233.23 172.702 233.23C179.007 233.23 183.741 234.471 187.027 236.823C190.263 239.139 192.213 242.62 192.817 247.396C192.596 255.632 188.124 261.998 179.088 266.509C169.999 271.046 153.854 273.381 130.467 273.381Z" fill="white" stroke="white" stroke-width="2"/>
<path d="M282.592 116.429L282.612 116.428C286.383 116.281 289.818 114.804 292.898 112.066C295.983 109.323 297.625 106.191 297.625 102.687V102.657L297.624 102.627C297.462 99.9132 296.403 97.6156 294.455 95.7913C292.494 93.9566 290.046 93.055 287.184 93.055H287.146C283.252 93.2009 279.811 94.5941 276.86 97.2112C273.896 99.8397 272.351 102.978 272.351 106.591V106.615L272.352 106.638C272.507 109.981 273.611 112.579 275.84 114.185C277.901 115.669 280.153 116.429 282.573 116.429H282.592ZM268.301 233.165C273.356 233.165 278.093 231.584 282.494 228.459C286.832 225.379 290.225 221.858 292.648 217.889C295.009 214.022 296.865 210.482 298.207 207.272C298.872 205.681 299.379 204.33 299.721 203.226C300.056 202.146 300.26 201.221 300.26 200.515C300.26 199.983 300.114 199.476 299.8 199.035C299.493 198.604 299.065 198.292 298.586 198.068C297.654 197.631 296.379 197.459 294.869 197.459C293.757 197.459 292.855 197.494 292.179 197.569C291.843 197.606 291.536 197.655 291.276 197.725C291.052 197.785 290.715 197.895 290.453 198.141C290.261 198.32 290.123 198.544 290.021 198.734C289.912 198.938 289.808 199.176 289.708 199.439C289.509 199.958 289.301 200.636 289.081 201.458C287.491 206.188 285.694 210.146 283.701 213.345C281.68 216.587 279.775 218.877 278 220.284C276.146 221.752 274.583 222.622 273.3 222.982C271.911 223.372 270.612 223.561 269.399 223.561C268.411 223.561 267.808 223.238 267.409 222.689C266.966 222.08 266.667 221.044 266.667 219.423C266.667 218.19 267.001 216.115 267.723 213.133C270.055 206.725 273.117 199.018 276.908 190.01C280.715 180.963 283.648 173.759 285.703 168.401C287.75 163.062 288.842 159.068 288.842 156.534V156.506C288.689 150.901 286.6 146.372 282.552 143.021C278.54 139.698 273.546 138.064 267.642 138.064V138.065C262.855 137.928 258.258 139.527 253.873 142.783C249.538 146 246.216 149.593 243.94 153.571C241.729 157.433 239.953 160.965 238.616 164.163C237.951 165.754 237.443 167.105 237.101 168.208C236.766 169.289 236.562 170.214 236.562 170.92C236.562 171.446 236.824 171.917 237.077 172.271C237.35 172.655 237.733 173.066 238.196 173.499L238.485 173.77H244.588C244.974 173.77 245.368 173.612 245.67 173.47C245.861 173.381 246.077 173.259 246.259 173.088C246.428 172.93 246.652 172.645 246.68 172.239C246.681 172.237 246.682 172.234 246.683 172.232C246.698 172.191 246.729 172.117 246.788 172.007C246.847 171.895 246.899 171.814 246.94 171.757L247.028 171.65L247.235 171.456L247.309 171.183C249.184 164.297 251.912 158.676 255.465 154.285C259.001 149.917 262.766 147.873 266.764 147.873H267.204C268.207 147.873 268.812 148.191 269.206 148.71C269.637 149.28 269.933 150.252 269.935 151.787C269.791 154.286 269.298 156.862 268.447 159.517C267.582 162.214 264.379 170.461 258.81 184.317V184.318C253.256 197.862 250.097 205.7 249.355 207.784C248.582 209.953 248.199 212.26 248.199 214.696V214.708L248.2 214.721C248.352 220.852 250.502 225.559 254.758 228.658C258.874 231.654 263.396 233.165 268.301 233.165Z" fill="white" stroke="white" stroke-width="2"/>
<path d="M337.684 233.165C340.16 233.165 342.311 232.658 344.078 231.58C345.835 230.509 347.143 228.918 348.019 226.864C348.316 226.366 348.664 225.596 349.057 224.609C349.477 223.551 349.972 222.186 350.542 220.517C351.682 217.178 353.132 212.592 354.89 206.764C358.405 195.109 361.555 184.068 364.339 173.644C365.73 168.437 366.774 164.477 367.471 161.766C367.819 160.411 368.081 159.364 368.257 158.628C368.345 158.261 368.413 157.965 368.459 157.743C368.482 157.634 368.501 157.535 368.515 157.451C368.52 157.422 368.527 157.378 368.533 157.327H387.979C387.972 157.355 387.965 157.384 387.957 157.412C387.926 157.529 387.937 157.49 387.904 157.612C387.889 157.668 387.864 157.763 387.848 157.824C387.843 157.839 387.837 157.862 387.833 157.878C387.831 157.887 387.821 157.925 387.818 157.934C387.803 157.993 387.803 157.988 387.787 158.048C387.774 158.098 387.738 158.232 387.724 158.285C387.715 158.319 387.701 158.375 387.691 158.409C387.679 158.458 387.687 158.424 387.674 158.472C387.67 158.487 387.67 158.489 387.666 158.504C387.665 158.509 387.663 158.515 387.661 158.52C387.66 158.525 387.659 158.531 387.657 158.536C387.646 158.579 387.651 158.557 387.64 158.601C387.638 158.606 387.637 158.611 387.636 158.617C387.634 158.622 387.632 158.628 387.631 158.633C387.629 158.639 387.628 158.644 387.627 158.65C387.625 158.655 387.624 158.661 387.622 158.666C387.621 158.672 387.62 158.678 387.618 158.683C387.617 158.688 387.615 158.694 387.613 158.7C387.612 158.705 387.611 158.711 387.609 158.716C387.608 158.722 387.606 158.727 387.604 158.733C387.587 158.797 387.604 158.734 387.587 158.799C387.585 158.805 387.584 158.811 387.582 158.817C387.581 158.822 387.58 158.828 387.578 158.833C387.564 158.887 387.583 158.813 387.568 158.867C387.558 158.906 387.561 158.897 387.551 158.936C387.54 158.977 387.543 158.964 387.532 159.005L387.508 159.093C387.506 159.099 387.505 159.105 387.504 159.111C387.484 159.186 387.514 159.071 387.494 159.147C387.485 159.182 387.494 159.147 387.484 159.182C387.483 159.188 387.481 159.194 387.479 159.201C387.478 159.206 387.476 159.212 387.475 159.218C387.473 159.224 387.471 159.231 387.47 159.237C387.468 159.243 387.466 159.248 387.465 159.254L387.455 159.291C387.441 159.342 387.449 159.313 387.436 159.365C387.414 159.445 387.378 159.582 387.355 159.666C387.341 159.722 387.329 159.766 387.313 159.823C387.282 159.939 387.303 159.863 387.271 159.981C387.252 160.054 387.204 160.231 387.184 160.309C387.16 160.396 387.196 160.263 387.173 160.351C387.171 160.358 387.169 160.365 387.167 160.371C387.165 160.378 387.163 160.386 387.161 160.393C387.136 160.488 387.164 160.381 387.139 160.477L387.121 160.541C387.119 160.548 387.118 160.556 387.116 160.563L387.093 160.649C387.053 160.797 387.039 160.85 386.998 161.002L386.986 161.047C386.981 161.066 386.98 161.074 386.975 161.093C386.959 161.15 386.977 161.08 386.962 161.138C386.96 161.145 386.958 161.153 386.956 161.16C386.954 161.168 386.952 161.176 386.95 161.184C386.932 161.254 386.919 161.298 386.9 161.368C386.87 161.484 386.832 161.628 386.8 161.747C386.735 161.992 386.657 162.282 386.587 162.543C386.552 162.674 386.566 162.62 386.531 162.751C386.528 162.763 386.521 162.792 386.518 162.803C386.515 162.812 386.513 162.821 386.511 162.829C386.508 162.838 386.505 162.847 386.503 162.856C386.495 162.886 386.484 162.931 386.476 162.961C386.443 163.082 386.451 163.053 386.418 163.175C386.379 163.321 386.4 163.244 386.36 163.392C386.349 163.433 386.313 163.57 386.302 163.612C386.264 163.754 386.281 163.691 386.242 163.834C386.224 163.903 386.2 163.991 386.182 164.061C386.153 164.167 386.149 164.183 386.12 164.29C384.792 169.263 383.469 175.598 382.148 183.287C380.823 191.008 380.158 198.258 380.158 205.036C380.158 209.811 380.23 212.893 380.385 214.198L380.389 214.233L380.396 214.268C381.426 219.642 382.615 223.844 383.981 226.827C384.653 228.295 385.306 229.488 385.942 230.382C386.56 231.249 387.247 231.957 388.031 232.272C389.215 232.747 390.671 232.96 392.355 232.96C395.81 232.96 398.71 231.848 400.969 229.583C403.156 227.389 404.334 224.956 404.334 222.3C404.334 221.987 404.256 221.63 404.159 221.284C404.057 220.919 403.908 220.486 403.72 219.992C403.342 219.001 402.781 217.709 402.045 216.124C400.623 213.062 399.251 208.753 397.94 203.164C396.644 197.637 395.99 191.344 395.99 184.279C395.99 177.923 396.858 169.838 398.608 160.007L399.113 157.327H412.336C416.95 157.327 420.529 157.294 423.067 157.225C424.335 157.191 425.353 157.147 426.114 157.094C426.829 157.045 427.432 156.981 427.784 156.871L427.793 156.868C430.26 156.075 432.204 154.89 433.531 153.26C434.868 151.618 435.513 149.603 435.513 147.284C435.513 145.67 435.099 144.246 434.21 143.081C433.325 141.922 432.035 141.106 430.433 140.58L430.392 140.567L430.349 140.557C430.215 140.526 430.046 140.514 429.941 140.507C429.802 140.498 429.62 140.49 429.401 140.483C428.962 140.467 428.346 140.454 427.558 140.441C425.979 140.415 423.687 140.393 420.686 140.376C414.681 140.342 405.823 140.325 394.112 140.325C378.157 140.325 366.059 140.359 357.821 140.427C353.703 140.461 350.545 140.504 348.351 140.556C347.255 140.582 346.393 140.61 345.77 140.641C345.459 140.656 345.199 140.672 344.996 140.69C344.854 140.702 344.69 140.72 344.547 140.749C339.187 141.474 333.827 144.19 328.47 148.786C323.162 153.341 319.07 157.65 316.226 161.714C314.829 163.71 313.767 165.33 313.051 166.565C312.693 167.181 312.411 167.72 312.216 168.173C312.036 168.591 311.873 169.056 311.873 169.481C311.873 170.001 312.008 170.501 312.306 170.941C312.598 171.373 313.009 171.69 313.474 171.919C314.376 172.364 315.604 172.536 317.045 172.536C318.004 172.536 318.778 172.519 319.357 172.483C319.646 172.465 319.902 172.442 320.114 172.41C320.299 172.383 320.547 172.337 320.762 172.237L321.063 172.096L321.221 171.802C321.223 171.798 321.232 171.784 321.249 171.758C321.273 171.723 321.305 171.675 321.35 171.615C321.439 171.493 321.563 171.334 321.723 171.134C322.042 170.735 322.492 170.196 323.074 169.514C324.217 168.177 325.581 166.766 327.17 165.279C328.541 163.995 329.901 162.926 331.251 162.065L331.828 161.708L331.846 161.699L331.862 161.687C335.183 159.524 337.905 158.306 340.053 157.929C342.301 157.534 346.176 157.327 351.736 157.327H357.345L356.063 160.925L356.058 160.942L356.052 160.959C351.097 176.646 343.145 195.296 332.182 216.915L332.177 216.923L329.323 222.678L329.219 222.888V225.383C329.219 227.824 329.895 229.831 331.413 231.21C332.913 232.572 335.064 233.165 337.684 233.165Z" fill="white" stroke="white" stroke-width="2"/>
<path d="M498.966 237H17.1719C7.68811 237 0 244.211 0 253.105C0 262 7.68811 269.211 17.1719 269.211H498.966C508.449 269.211 516.138 262 516.138 253.105C516.138 244.211 508.449 237 498.966 237Z" fill="#10B981" fill-opacity="0.5"/>
</svg>
