<svg width="1000" height="1000" viewBox="0 0 1000 1000" fill="none" xmlns="http://www.w3.org/2000/svg">
<path d="M640.394 971.096C638.868 968.948 637.225 964.304 636.743 960.776C636.26 957.249 635.065 952.825 634.087 950.946C633.109 949.067 632.305 946.803 632.3 945.914C632.296 945.025 630.487 941.229 628.281 937.479C626.075 933.729 624.27 930.379 624.27 930.035C624.27 929.286 615.886 917.245 612.579 913.245C606.648 906.073 586.732 892.387 569.39 883.568C560.251 878.921 558.485 875.998 561.455 870.435L562.979 867.58L571.9 868.122C581.579 868.711 599.477 870.788 621.597 873.891C629.317 874.973 643.943 875.853 654.099 875.846L672.564 875.831L682.576 870.937C692.417 866.127 708.496 851.27 708.496 846.988C708.496 846.079 709.398 844.585 710.501 843.667C711.604 842.75 712.507 841.109 712.507 840.021C712.507 838.932 713.388 836.142 714.465 833.819C719.31 823.372 723.659 797.15 725.945 764.599C726.696 753.912 727.846 741.85 728.501 737.797C729.156 733.743 729.755 725.601 729.833 719.705C729.911 713.808 730.556 704.762 731.268 699.603C731.98 694.443 733.128 680.573 733.82 668.78C734.512 656.986 735.704 640.704 736.471 632.596C737.237 624.488 738.508 607.602 739.295 595.072C743.178 533.251 744.596 511.701 745.982 493.476C746.812 482.561 747.121 472.663 746.669 471.481L745.846 469.332L643.948 470.276C587.904 470.795 526.108 471.779 506.622 472.464C487.136 473.148 449.916 473.726 423.911 473.749L376.628 473.789L371.771 478.942C369.1 481.776 359.695 491.824 350.871 501.272C332.955 520.455 318.334 535.278 306.88 545.867C298.114 553.973 297.867 556.24 305.416 559.311L310.764 561.487L353.545 561.966C377.075 562.229 436.935 561.768 486.568 560.941L576.81 559.437L580.637 556.666C582.742 555.141 589.66 548.92 596.011 542.841C614.745 524.91 621.629 519.219 623.346 520.244C626.26 521.985 673.01 557.879 676.546 561.09C683.95 567.814 682.605 572.451 668.56 588.625L659.03 599.599L658.933 664.342C658.879 699.951 658.327 732.101 657.706 735.786C656.201 744.723 653.918 753.936 652.393 757.228C651.711 758.702 649.783 763.225 648.109 767.279C635.222 798.492 607.933 819.275 595.906 807.038C591.592 802.649 590.448 799.805 584.221 778C582.642 772.472 580.89 767.085 580.328 766.028L579.304 764.107L530.597 764.549C503.808 764.792 442.784 765.355 394.99 765.8L308.09 766.609L307.297 786.711C306.241 813.501 304.893 817.088 290.135 832.389C281.582 841.257 269.938 849.657 264.194 851.102C262.22 851.598 260.274 852.541 259.87 853.196C258.131 856.016 248.837 854.446 246.021 850.857L243.25 847.326V725.554C243.25 658.58 242.855 603.782 242.373 603.782C241.642 603.782 237.178 606.929 230.549 612.119C220.224 620.201 198.58 636.313 194.452 638.989C191.511 640.896 183.991 646.098 177.741 650.549C171.491 655 161.662 661.526 155.898 665.051C150.135 668.575 143.818 672.508 141.861 673.79C135.39 678.027 134.908 677.983 129.461 672.651C122.035 665.383 122.616 663.99 140.976 645.04C149.8 635.932 161.523 623.376 167.027 617.137C172.532 610.897 177.359 605.491 177.755 605.122C178.15 604.754 181.723 600.231 185.694 595.071C189.666 589.912 193.583 585.087 194.4 584.35C195.217 583.613 200.058 577.582 205.158 570.949C210.258 564.315 214.781 558.586 215.208 558.217C215.635 557.849 217.754 555.135 219.917 552.187C222.08 549.239 224.209 546.525 224.649 546.156C225.713 545.265 233.054 534.763 253.205 505.303C256.474 500.523 261.738 492.338 264.903 487.115C268.067 481.891 271.559 476.199 272.662 474.466C276.629 468.23 297.595 432.87 298.491 430.904C298.995 429.799 301.522 425.276 304.106 420.853C306.691 416.431 309.535 411.305 310.426 409.462C311.317 407.62 312.372 405.81 312.769 405.442C313.167 405.073 314.219 403.113 315.108 401.086C316.811 397.199 321.964 396.022 325.192 398.781C327.334 400.612 338.616 408.691 349.467 416.163C357.481 421.682 375.741 434.733 378.947 437.233C379.682 437.806 382.468 439.429 385.139 440.84L389.993 443.404L441.289 441.817C469.501 440.943 545.526 439.864 610.233 439.419L727.881 438.608L733.675 434.17C738.862 430.197 748.619 421.4 771.318 400.227C781.466 390.762 779.494 390.105 801.063 410.132C805.826 414.555 813.228 421.188 817.512 424.874C841.192 445.243 846.217 450.501 846.104 454.795C845.955 460.481 844.889 462.095 832.161 475.906L820.128 488.961L817.891 506.503C816.661 516.15 815.617 528.266 815.571 533.425C815.525 538.585 814.588 553.058 813.489 565.588C810.837 595.819 808.826 622.821 807.4 647.337C806.757 658.393 805.596 672.866 804.821 679.5C804.045 686.134 802.824 699.1 802.107 708.313C799.618 740.296 797.979 757.269 796.642 764.915C795.903 769.143 795.008 776.681 794.653 781.667C791.275 829.14 780.82 868.645 763.705 898.612C753.583 916.336 726.458 943.553 712.507 949.983C711.404 950.491 708.697 952.1 706.491 953.558C704.285 955.016 701.578 956.594 700.475 957.064C699.372 957.534 694.707 959.651 690.11 961.769C685.512 963.887 681.392 965.619 680.954 965.619C680.515 965.619 678.261 966.471 675.944 967.511C666.743 971.644 654.707 975 649.089 975H643.169L640.394 971.096ZM365.705 736.352L367.583 734.79V664.853C367.583 610.96 367.199 594.39 365.909 592.621L364.235 590.327L336.163 590.69L308.09 591.053L307.72 662.08C307.517 701.145 307.7 734.558 308.132 736.332L308.914 739.555L336.37 738.735C354.17 738.203 364.487 737.365 365.705 736.352ZM483.984 735.733C484.731 735.27 485.231 705.747 485.231 662.092V589.224L482.371 588.314C478.148 586.97 423.346 589.11 421.394 590.695C420.095 591.75 419.722 607.962 419.722 663.518V734.985L422.062 736.467C424.475 737.994 481.422 737.32 483.984 735.733ZM590.525 735.611L593.544 734.8L593.198 661.587L592.853 588.373L566.955 588.009C548.984 587.756 540.494 588.113 539.214 589.178L537.371 590.711V662.803C537.371 719.222 537.734 735.042 539.042 735.571C541.445 736.543 586.924 736.577 590.525 735.611Z" fill="rgba(127,127,127,1)"/>
<path d="M453.478 426.935C448.782 420.966 449.546 416.225 455.972 411.475C464.793 404.954 492.008 376.193 501.654 363.197C506.565 356.581 511.075 350.565 511.677 349.828C512.279 349.091 513.199 347.583 513.722 346.478C514.244 345.372 515.807 342.659 517.195 340.447C519.98 336.009 529.827 316.316 532.943 308.954C534.035 306.374 535.778 302.556 536.817 300.47C537.857 298.383 538.707 295.76 538.707 294.641C538.707 293.523 539.588 290.707 540.665 288.384C542.624 284.16 543.989 279.311 546.759 266.74C547.571 263.054 548.897 257.928 549.705 255.349C550.513 252.769 551.633 246.738 552.194 241.947C552.754 237.156 553.833 230.522 554.592 227.206C555.35 223.889 555.996 217.065 556.028 212.043L556.087 202.91L533.025 203.607C520.341 203.99 507.343 204.481 504.141 204.698L498.32 205.093L491.033 191.198C486.353 182.274 483.892 176.041 484.154 173.776L484.562 170.25L521.995 169.58L559.429 168.91L560.377 122.005C562.185 32.4981 563.154 21.9287 569.199 25.713C570.491 26.5221 573.635 27.632 576.184 28.1794C578.734 28.7268 581.421 29.6384 582.156 30.2053C582.892 30.7721 585.579 31.6838 588.129 32.2311C590.678 32.7785 593.686 33.7483 594.813 34.3863C597.33 35.8106 607.467 39.4027 612.937 40.8085C615.16 41.3799 618.279 42.5447 619.868 43.3971C621.457 44.2494 623.849 44.9505 625.184 44.955C626.519 44.9596 629.335 45.8642 631.441 46.9652C633.547 48.0663 636.254 48.9709 637.457 48.9755C638.66 48.98 641.174 49.7844 643.045 50.7629C644.915 51.7415 648.503 52.9546 651.018 53.4587C656.435 54.5449 663.04 60.438 663.04 64.1861C663.04 68.6896 648.695 91.6328 639.878 101.233C634.485 107.104 633.949 109.722 633.022 134.736C632.516 148.372 631.995 161.338 631.863 163.549L631.622 167.569L646.996 167.899L662.371 168.228L667.719 163.422C674.365 157.448 677.198 154.982 689.778 144.221C695.293 139.503 700.105 135.228 700.473 134.72C700.841 134.213 702.545 133.056 704.261 132.15L707.38 130.502L710.185 132.954C711.728 134.303 713.992 136.311 715.217 137.416C716.442 138.522 722.198 143.336 728.009 148.115C733.821 152.894 738.876 157.118 739.244 157.501C739.611 157.885 744.424 161.794 749.939 166.188C773.24 184.752 773.28 185.089 754.415 204.115L740.174 218.477L737.703 229.809C736.345 236.042 735.226 243.584 735.218 246.57C735.208 249.555 734.308 254.958 733.213 258.577C732.118 262.195 731.222 267.837 731.222 271.115C731.222 274.392 730.258 280.779 729.079 285.308C727.823 290.136 726.855 299.743 726.739 308.529L726.543 323.516L731.804 328.216L737.065 332.916L745.751 333.849C788.5 338.438 803.379 326.708 806.231 286.172C806.827 277.695 807.898 267.443 808.61 263.389C809.322 259.335 809.986 251.797 810.086 246.638C810.185 241.478 811.298 231.226 812.559 223.855L814.851 210.454H823.45H832.049L833.042 214.474C834.512 220.431 836.704 230.618 838.952 241.947C840.049 247.475 841.832 255.918 842.915 260.709C843.997 265.5 844.877 270.583 844.871 272.006C844.841 279.247 854.869 301.731 860.805 307.728C880.971 328.098 879.511 351 857.31 362.559C853.771 364.402 850.575 366.259 850.207 366.685C849.84 367.112 845.027 368.819 839.512 370.478C833.997 372.138 826.778 374.355 823.469 375.405C820.16 376.455 815.273 377.311 812.608 377.308C809.943 377.304 805.431 378.115 802.581 379.109C799.731 380.103 792.431 381.291 786.358 381.748C780.286 382.205 774.072 383.247 772.551 384.064C765.77 387.701 706.693 383.879 697.357 379.198C695.275 378.155 692.694 377.301 691.621 377.301C687.687 377.301 669.724 361.64 669.724 358.211C669.724 357.549 668.822 356.103 667.719 354.997C666.616 353.892 665.713 351.893 665.713 350.556C665.713 349.218 664.815 346.397 663.716 344.286C661.208 339.466 660.967 299.954 663.221 263.291C664.056 249.709 664.808 229.852 664.892 219.165L665.045 199.733L647.868 199.748L630.69 199.763L628.351 202.659C626.929 204.419 625.688 209.032 625.186 214.423C624.732 219.3 623.888 224.02 623.312 224.911C622.737 225.803 621.58 230.15 620.742 234.573C619.905 238.995 618.25 245.78 617.065 249.649C615.88 253.519 614.058 259.55 613.016 263.051C611.975 266.552 609.809 272.733 608.204 276.787C606.599 280.841 604.978 285.496 604.602 287.132C604.227 288.768 603.084 290.802 602.062 291.652C601.041 292.502 600.205 294.03 600.205 295.048C600.205 297.237 590.921 315.52 588.507 318.087C587.588 319.064 586.836 320.366 586.836 320.982C586.836 322.582 573.377 342.607 570.153 345.804C568.667 347.278 566.288 350.294 564.867 352.505C560.926 358.64 543.099 376.707 533.359 384.437C528.58 388.231 523.885 392.085 522.927 393.003C521.239 394.619 508.771 403.361 504.195 406.138C502.956 406.89 499.535 409.024 496.594 410.88C493.653 412.736 485.956 416.895 479.489 420.122C473.023 423.35 467.422 426.493 467.044 427.107C466.665 427.72 464.923 428.223 463.171 428.223C461.42 428.223 459.615 428.826 459.16 429.563C457.893 431.619 456.75 431.093 453.478 426.935Z" fill="rgba(127,127,127,1)"/>
<path d="M132.592 458.12C131.657 457.762 130.022 455.781 128.958 453.718L127.023 449.968L130.107 446.804C131.803 445.063 135.497 441.83 138.317 439.618C162.325 420.788 190.931 391.45 211.459 364.608C219.934 353.526 231.651 334.096 239.118 318.743C243.708 309.306 248.32 299.877 249.367 297.79C250.414 295.704 251.275 293.291 251.279 292.43C251.284 291.568 252.129 289.245 253.159 287.268C254.188 285.291 255.457 281.672 255.979 279.227C256.5 276.782 257.39 274.179 257.956 273.441C258.521 272.704 259.413 269.991 259.939 267.411C260.464 264.831 261.676 260.007 262.632 256.69C266.734 242.459 272.797 209.017 271.764 206.319C270.906 204.078 268.188 204.051 213.169 205.751C191.845 206.41 172.469 207.537 170.111 208.257C164.098 210.091 160.561 208.784 158.372 203.919C157.336 201.617 154.352 195.916 151.74 191.25C149.129 186.585 146.992 181.705 146.992 180.407V178.047L174.064 177.168C188.954 176.684 217.531 176.287 237.568 176.285C257.605 176.283 274.098 176.131 274.22 175.946C274.341 175.762 274.792 141.84 275.222 100.564L276.004 25.516L279.897 25.0709C282.039 24.8261 285.047 25.2359 286.582 25.9815C288.117 26.727 293.885 28.639 299.4 30.2303C304.915 31.8215 311.833 33.8976 314.774 34.8437C317.716 35.7898 323.431 37.5252 327.475 38.7003C356.25 47.0609 364.768 50.2208 366.309 53.1069C369.172 58.4693 367.641 64.1065 359.895 76.7217C355.667 83.608 351.583 90.3684 350.819 91.7447C350.055 93.1211 348.551 95.3074 347.477 96.6031C345.928 98.4705 345.361 105.934 344.74 132.595C344.309 151.094 343.505 167.517 342.953 169.089C338.851 180.79 365.05 178.688 378.594 166.23C381.8 163.282 389.146 156.95 394.92 152.159C400.694 147.368 408.469 140.634 412.197 137.194C420.234 129.78 419.999 129.72 432.939 142.534C437.912 147.459 449.457 158.706 458.593 167.527C482.592 190.7 484.607 194.067 478.126 200.17L475.032 203.084L441.695 203.087C423.36 203.089 393.436 203.488 375.197 203.974L342.036 204.857L340.259 209.122C339.281 211.467 338.036 217.236 337.491 221.941C336.946 226.647 335.673 232.847 334.661 235.721C333.65 238.594 332.823 241.46 332.823 242.089C332.823 243.513 342.689 248.649 345.425 248.649C346.532 248.649 349.715 249.62 352.497 250.807C355.279 251.995 359.36 253.707 361.566 254.613C412.049 275.339 460.161 314.066 464.548 337.505C465.061 340.246 466.014 342.819 466.666 343.222C469.881 345.214 466.209 368.25 461.473 375.797C447.643 397.839 425.985 390.858 399.619 355.86C381.977 332.443 329.4 275.452 325.438 275.452C323.987 275.452 322.58 277.875 318.826 286.843C297.864 336.917 267.478 374.632 218.951 410.805C206.474 420.106 185.249 434.052 180.158 436.294C178.461 437.042 174.365 439.207 171.056 441.107C147.991 454.349 136.272 459.532 132.592 458.12Z" fill="rgba(127,127,127,1)"/>
</svg>
