<svg xmlns="http://www.w3.org/2000/svg" xmlns:xlink="http://www.w3.org/1999/xlink" width="279.913" height="217.389" viewBox="0 0 209.935 163.042"><symbol id="a"><path d="M.205.64c0 .024 0 .026-.023.026C.12.602.032.602 0 .602V.571a.3.3 0 0 1 .131.026V.079C.131.043.128.031.038.031H.006V0c.035.003.122.003.162.003.04 0 .127 0 .162-.003v.031H.298c-.09 0-.093.011-.093.048V.64z"/></symbol><use xlink:href="#a" transform="matrix(9.9626 0 0 -9.9626 5.176 11.118)"/><symbol id="b"><path d="M.384.962C.389.975.389.979.389.98a.02.02 0 0 1-.02.02C.362 1 .355.997.352.991L.005.038C0 .025 0 .021 0 .02A.02.02 0 0 1 .02 0c.013 0 .016.007.022.024l.342.938z"/></symbol><use xlink:href="#b" transform="matrix(9.9626 0 0 -9.9626 9.819 13.609)"/><use xlink:href="#a" transform="matrix(9.9626 0 0 -9.9626 15.139 11.118)"/><use xlink:href="#a" transform="matrix(9.9626 0 0 -9.9626 52.61 11.118)"/><use xlink:href="#b" transform="matrix(9.9626 0 0 -9.9626 57.252 13.609)"/><symbol id="c"><path d="M.077.077.183.18c.156.138.216.192.216.292 0 .114-.09.194-.212.194A.185.185 0 0 1 0 .485C0 .429.05.429.053.429c.017 0 .052.012.052.053a.05.05 0 0 1-.053.052L.039.533a.144.144 0 0 0 .135.102C.265.635.308.554.308.472c0-.08-.05-.159-.105-.221L.011.037C0 .026 0 .024 0 0h.371l.028.174H.374C.369.144.362.1.352.085.345.077.279.077.257.077h-.18z"/></symbol><use xlink:href="#c" transform="matrix(9.9626 0 0 -9.9626 62.183 11.118)"/><use xlink:href="#a" transform="matrix(9.9626 0 0 -9.9626 100.043 11.118)"/><use xlink:href="#b" transform="matrix(9.9626 0 0 -9.9626 104.685 13.609)"/><symbol id="d"><path d="M.248.374c.082.027.14.097.14.176C.388.632.3.688.204.688.103.688.027.628.027.552.027.519.049.5.078.5.109.5.129.522.129.551c0 .05-.047.05-.062.05C.098.65.164.663.2.663.241.663.296.641.296.551A.25.25 0 0 0 .268.437C.238.389.204.386.179.385A.554.554 0 0 0 .14.382C.132.381.125.38.125.37c0-.011.007-.011.024-.011h.044C.275.359.312.291.312.193.312.057.243.028.199.028.156.028.081.045.046.104.081.099.112.121.112.159a.054.054 0 0 1-.056.056C.032.215 0 .201 0 .157 0 .066.093 0 .202 0c.122 0 .213.091.213.193 0 .082-.063.16-.167.181z"/></symbol><use xlink:href="#d" transform="matrix(9.9626 0 0 -9.9626 109.537 11.337)"/><use xlink:href="#a" transform="matrix(9.9626 0 0 -9.9626 147.476 11.118)"/><use xlink:href="#b" transform="matrix(9.9626 0 0 -9.9626 152.118 13.609)"/><symbol id="e"><path d="M.266.165V.078C.266.042.264.031.19.031H.169V0C.21.003.262.003.304.003.346.003.399.003.44 0v.031H.419C.345.031.343.042.343.078v.087h.1v.031h-.1v.455c0 .02 0 .026-.016.026-.009 0-.012 0-.02-.012L0 .196V.165h.266m.006.031H.028l.244.373V.196z"/></symbol><use xlink:href="#e" transform="matrix(9.9626 0 0 -9.9626 156.83 11.118)"/><symbol id="f"><path d="M.106.053a.053.053 0 0 1-.053.053A.053.053 0 0 1 0 .053C0 .024.024 0 .053 0c.029 0 .053.024.053.053z"/></symbol><use xlink:href="#f" transform="matrix(9.9626 0 0 -9.9626 194.879 9.155)"/><use xlink:href="#f" transform="matrix(9.9626 0 0 -9.9626 199.312 9.155)"/><use xlink:href="#f" transform="matrix(9.9626 0 0 -9.9626 203.736 9.155)"/><use xlink:href="#c" transform="matrix(9.9626 0 0 -9.9626 4.787 46.306)"/><use xlink:href="#b" transform="matrix(9.9626 0 0 -9.9626 9.819 48.797)"/><use xlink:href="#a" transform="matrix(9.9626 0 0 -9.9626 15.139 46.306)"/><use xlink:href="#c" transform="matrix(9.9626 0 0 -9.9626 52.221 46.306)"/><use xlink:href="#b" transform="matrix(9.9626 0 0 -9.9626 57.252 48.797)"/><use xlink:href="#c" transform="matrix(9.9626 0 0 -9.9626 62.183 46.306)"/><use xlink:href="#c" transform="matrix(9.9626 0 0 -9.9626 99.654 46.306)"/><use xlink:href="#b" transform="matrix(9.9626 0 0 -9.9626 104.685 48.797)"/><use xlink:href="#d" transform="matrix(9.9626 0 0 -9.9626 109.537 46.525)"/><use xlink:href="#c" transform="matrix(9.9626 0 0 -9.9626 147.087 46.306)"/><use xlink:href="#b" transform="matrix(9.9626 0 0 -9.9626 152.118 48.797)"/><use xlink:href="#e" transform="matrix(9.9626 0 0 -9.9626 156.83 46.306)"/><use xlink:href="#f" transform="matrix(9.9626 0 0 -9.9626 194.879 44.343)"/><use xlink:href="#f" transform="matrix(9.9626 0 0 -9.9626 199.312 44.343)"/><use xlink:href="#f" transform="matrix(9.9626 0 0 -9.9626 203.736 44.343)"/><use xlink:href="#d" transform="matrix(9.9626 0 0 -9.9626 4.707 81.713)"/><use xlink:href="#b" transform="matrix(9.9626 0 0 -9.9626 9.819 83.985)"/><use xlink:href="#a" transform="matrix(9.9626 0 0 -9.9626 15.139 81.494)"/><use xlink:href="#d" transform="matrix(9.9626 0 0 -9.9626 52.141 81.713)"/><use xlink:href="#b" transform="matrix(9.9626 0 0 -9.9626 57.252 83.985)"/><use xlink:href="#c" transform="matrix(9.9626 0 0 -9.9626 62.183 81.494)"/><use xlink:href="#d" transform="matrix(9.9626 0 0 -9.9626 99.574 81.713)"/><use xlink:href="#b" transform="matrix(9.9626 0 0 -9.9626 104.685 83.985)"/><use xlink:href="#d" transform="matrix(9.9626 0 0 -9.9626 109.537 81.713)"/><use xlink:href="#d" transform="matrix(9.9626 0 0 -9.9626 147.007 81.713)"/><use xlink:href="#b" transform="matrix(9.9626 0 0 -9.9626 152.118 83.985)"/><use xlink:href="#e" transform="matrix(9.9626 0 0 -9.9626 156.83 81.494)"/><use xlink:href="#f" transform="matrix(9.9626 0 0 -9.9626 194.879 79.531)"/><use xlink:href="#f" transform="matrix(9.9626 0 0 -9.9626 199.312 79.531)"/><use xlink:href="#f" transform="matrix(9.9626 0 0 -9.9626 203.736 79.531)"/><use xlink:href="#e" transform="matrix(9.9626 0 0 -9.9626 4.568 116.681)"/><use xlink:href="#b" transform="matrix(9.9626 0 0 -9.9626 9.819 119.172)"/><use xlink:href="#a" transform="matrix(9.9626 0 0 -9.9626 15.139 116.681)"/><use xlink:href="#e" transform="matrix(9.9626 0 0 -9.9626 52.002 116.681)"/><use xlink:href="#b" transform="matrix(9.9626 0 0 -9.9626 57.252 119.172)"/><use xlink:href="#c" transform="matrix(9.9626 0 0 -9.9626 62.183 116.681)"/><use xlink:href="#e" transform="matrix(9.9626 0 0 -9.9626 99.435 116.681)"/><use xlink:href="#b" transform="matrix(9.9626 0 0 -9.9626 104.685 119.172)"/><use xlink:href="#d" transform="matrix(9.9626 0 0 -9.9626 109.537 116.9)"/><use xlink:href="#e" transform="matrix(9.9626 0 0 -9.9626 146.868 116.681)"/><use xlink:href="#b" transform="matrix(9.9626 0 0 -9.9626 152.118 119.172)"/><use xlink:href="#e" transform="matrix(9.9626 0 0 -9.9626 156.83 116.681)"/><use xlink:href="#f" transform="matrix(9.9626 0 0 -9.9626 194.879 114.718)"/><use xlink:href="#f" transform="matrix(9.9626 0 0 -9.9626 199.312 114.718)"/><use xlink:href="#f" transform="matrix(9.9626 0 0 -9.9626 203.736 114.718)"/><symbol id="g"><path d="M.106.053a.053.053 0 0 1-.053.053A.053.053 0 0 1 0 .053C0 .024.024 0 .053 0c.029 0 .053.024.053.053z"/></symbol><use xlink:href="#g" transform="matrix(9.9626 0 0 -9.9626 11.235 151.426)"/><use xlink:href="#g" transform="matrix(9.9626 0 0 -9.9626 11.235 155.411)"/><use xlink:href="#g" transform="matrix(9.9626 0 0 -9.9626 11.235 159.396)"/><use xlink:href="#g" transform="matrix(9.9626 0 0 -9.9626 58.668 151.426)"/><use xlink:href="#g" transform="matrix(9.9626 0 0 -9.9626 58.668 155.411)"/><use xlink:href="#g" transform="matrix(9.9626 0 0 -9.9626 58.668 159.396)"/><use xlink:href="#g" transform="matrix(9.9626 0 0 -9.9626 106.1 151.426)"/><use xlink:href="#g" transform="matrix(9.9626 0 0 -9.9626 106.1 155.411)"/><use xlink:href="#g" transform="matrix(9.9626 0 0 -9.9626 106.1 159.396)"/><use xlink:href="#g" transform="matrix(9.9626 0 0 -9.9626 153.534 151.426)"/><use xlink:href="#g" transform="matrix(9.9626 0 0 -9.9626 153.534 155.411)"/><use xlink:href="#g" transform="matrix(9.9626 0 0 -9.9626 153.534 159.396)"/><path stroke-width=".398" stroke-miterlimit="10" fill="none" stroke="#000" d="M23.72 8.627h23.114"/><path stroke-width=".398" stroke-linecap="round" stroke-linejoin="round" fill="none" stroke="#000" d="M44.961 6.236c.379 1.434 1.223 2.112 2.073 2.39-.85.28-1.694.957-2.073 2.392"/><path stroke-width=".398" stroke-miterlimit="10" fill="none" stroke="#000" d="M47.298 17.453 23.975 34.751"/><path stroke-width=".3979801" stroke-linecap="round" stroke-linejoin="round" fill="none" stroke="#000" d="M26.904 35.555c-1.16-.926-2.24-.968-3.089-.686.517-.73.79-1.777.24-3.154"/><path stroke-width=".398" stroke-miterlimit="10" fill="none" stroke="#000" d="M94.732 17.453 71.409 34.751"/><path stroke-width=".3979801" stroke-linecap="round" stroke-linejoin="round" fill="none" stroke="#000" d="M74.337 35.555c-1.158-.926-2.24-.968-3.088-.686.516-.73.79-1.777.24-3.154"/><path stroke-width=".398" stroke-miterlimit="10" fill="none" stroke="#000" d="m142.166 17.453-23.323 17.298"/><path stroke-width=".3979801" stroke-linecap="round" stroke-linejoin="round" fill="none" stroke="#000" d="M121.771 35.555c-1.158-.926-2.24-.968-3.088-.686.516-.73.79-1.777.24-3.154"/><path stroke-width=".398" stroke-miterlimit="10" fill="none" stroke="#000" d="m191.595 14.963-25.74 19.782"/><path stroke-width=".39797612000000004" stroke-linecap="round" stroke-linejoin="round" fill="none" stroke="#000" d="M168.798 35.5c-1.175-.907-2.256-.93-3.1-.634.504-.739.76-1.79.186-3.158"/><path stroke-width=".398" stroke-miterlimit="10" fill="none" stroke="#000" d="M23.72 39.381 94.294 13.2"/><path stroke-width=".39798408" stroke-linecap="round" stroke-linejoin="round" fill="none" stroke="#000" d="M91.706 11.61c.854 1.213 1.88 1.555 2.774 1.52-.7.558-1.255 1.486-1.111 2.963"/><path stroke-width=".398" stroke-miterlimit="10" fill="none" stroke="#000" d="M47.298 52.641 23.975 69.94"/><path stroke-width=".3979801" stroke-linecap="round" stroke-linejoin="round" fill="none" stroke="#000" d="M26.904 70.743c-1.16-.926-2.24-.968-3.089-.686.517-.73.79-1.777.24-3.154"/><path stroke-width=".398" stroke-miterlimit="10" fill="none" stroke="#000" d="M94.732 52.641 71.409 69.94"/><path stroke-width=".3979801" stroke-linecap="round" stroke-linejoin="round" fill="none" stroke="#000" d="M74.337 70.743c-1.158-.926-2.24-.968-3.088-.686.516-.73.79-1.777.24-3.154"/><path stroke-width=".398" stroke-miterlimit="10" fill="none" stroke="#000" d="M142.166 52.641 118.843 69.94"/><path stroke-width=".3979801" stroke-linecap="round" stroke-linejoin="round" fill="none" stroke="#000" d="M121.771 70.743c-1.158-.926-2.24-.968-3.088-.686.516-.73.79-1.777.24-3.154"/><path stroke-width=".398" stroke-miterlimit="10" fill="none" stroke="#000" d="m191.595 50.15-25.74 19.783"/><path stroke-width=".39797612000000004" stroke-linecap="round" stroke-linejoin="round" fill="none" stroke="#000" d="M168.798 70.687c-1.175-.906-2.256-.93-3.1-.632.504-.74.76-1.79.186-3.159"/><path stroke-width=".398" stroke-miterlimit="10" fill="none" stroke="#000" d="m23.72 73.097 118.023-58.39"/><path stroke-width=".39797612000000004" stroke-linecap="round" stroke-linejoin="round" fill="none" stroke="#000" d="M139.005 13.395c.975 1.118 2.031 1.351 2.917 1.224-.638.627-1.094 1.609-.797 3.062"/><path stroke-width=".398" stroke-miterlimit="10" fill="none" stroke="#000" d="m47.298 87.83-23.323 17.297"/><path stroke-width=".3979801" stroke-linecap="round" stroke-linejoin="round" fill="none" stroke="#000" d="M26.904 105.931c-1.16-.926-2.24-.968-3.089-.686.517-.73.79-1.777.24-3.154"/><path stroke-width=".398" stroke-miterlimit="10" fill="none" stroke="#000" d="m94.732 87.83-23.323 17.297"/><path stroke-width=".3979801" stroke-linecap="round" stroke-linejoin="round" fill="none" stroke="#000" d="M74.337 105.931c-1.158-.926-2.24-.968-3.088-.686.516-.73.79-1.777.24-3.154"/><path stroke-width=".398" stroke-miterlimit="10" fill="none" stroke="#000" d="m142.166 87.83-23.323 17.297"/><path stroke-width=".3979801" stroke-linecap="round" stroke-linejoin="round" fill="none" stroke="#000" d="M121.771 105.931c-1.158-.926-2.24-.968-3.088-.686.516-.73.79-1.777.24-3.154"/><path stroke-width=".398" stroke-miterlimit="10" fill="none" stroke="#000" d="m191.595 85.339-25.74 19.782"/><path stroke-width=".39797612000000004" stroke-linecap="round" stroke-linejoin="round" fill="none" stroke="#000" d="M168.798 105.875c-1.175-.906-2.256-.93-3.1-.633.504-.739.76-1.79.186-3.158"/><path stroke-width=".398" stroke-miterlimit="10" fill="none" stroke="#000" d="M23.72 107.482 189.188 14.6"/><path stroke-width=".3979801" stroke-linecap="round" stroke-linejoin="round" fill="none" stroke="#000" d="M186.383 13.432c1.033 1.066 2.1 1.244 2.978 1.07-.605.66-1.01 1.664-.637 3.1"/></svg>